# MagicaVoxel @ Ephtracy

# group
o 

# material
mtllib weapon 1.mtl
usemtl palette

# normals
vn -1 0 0
vn 1 0 0
vn 0 0 1
vn 0 0 -1
vn 0 -1 0
vn 0 1 0

# texcoords
vt 0.638672 0.5
vt 0.990234 0.5
vt 0.994141 0.5

# verts
v -1.3 1 0
v -1.3 1 -0.1
v -1.3 1.1 0
v -1.3 1.1 -0.1
v -0.9 0.9 0
v -0.9 0.9 -0.1
v -0.9 1 0.1
v -0.9 1 0
v -0.9 1 -0.1
v -0.9 1 -0.2
v -0.9 1.1 0.1
v -0.9 1.1 0
v -0.9 1.1 -0.1
v -0.9 1.1 -0.2
v -0.9 1.2 0
v -0.9 1.2 -0.1
v -0.8 0.9 0.1
v -0.8 0.9 0
v -0.8 0.9 -0.1
v -0.8 0.9 -0.2
v -0.8 1 0.1
v -0.8 1 0
v -0.8 1 -0.1
v -0.8 1 -0.2
v -0.8 1.1 0.1
v -0.8 1.1 0
v -0.8 1.1 -0.1
v -0.8 1.1 -0.2
v -0.8 1.2 0.1
v -0.8 1.2 0
v -0.8 1.2 -0.1
v -0.8 1.2 -0.2
v -0.7 0.8 0
v -0.7 0.8 -0.1
v -0.7 0.9 0
v -0.7 0.9 -0.1
v -0.7 1 0.2
v -0.7 1 0.1
v -0.7 1 -0.2
v -0.7 1 -0.3
v -0.7 1.1 0.2
v -0.7 1.1 0.1
v -0.7 1.1 -0.2
v -0.7 1.1 -0.3
v -0.7 1.2 0
v -0.7 1.2 -0.1
v -0.7 1.3 0
v -0.7 1.3 -0.1
v -0.5 1 0.3
v -0.5 1 0.2
v -0.5 1 -0.3
v -0.5 1 -0.4
v -0.5 1.1 0.3
v -0.5 1.1 0.2
v -0.5 1.1 -0.3
v -0.5 1.1 -0.4
v -0.4 0.8 0.2
v -0.4 0.8 0
v -0.4 0.8 -0.1
v -0.4 0.8 -0.3
v -0.4 0.9 0.3
v -0.4 0.9 0.2
v -0.4 0.9 0.1
v -0.4 0.9 0
v -0.4 0.9 -0.1
v -0.4 0.9 -0.2
v -0.4 0.9 -0.3
v -0.4 0.9 -0.4
v -0.4 1 0.4
v -0.4 1 0.3
v -0.4 1 0.1
v -0.4 1 -0.2
v -0.4 1 -0.4
v -0.4 1 -0.5
v -0.4 1.1 0.4
v -0.4 1.1 0.3
v -0.4 1.1 0.1
v -0.4 1.1 -0.2
v -0.4 1.1 -0.4
v -0.4 1.1 -0.5
v -0.4 1.2 0.3
v -0.4 1.2 0.2
v -0.4 1.2 0.1
v -0.4 1.2 0
v -0.4 1.2 -0.1
v -0.4 1.2 -0.2
v -0.4 1.2 -0.3
v -0.4 1.2 -0.4
v -0.4 1.3 0.2
v -0.4 1.3 0.1
v -0.4 1.3 0
v -0.4 1.3 -0.1
v -0.4 1.3 -0.2
v -0.4 1.3 -0.3
v -0.4 1.4 0
v -0.4 1.4 -0.1
v -0.3 0.7 0.1
v -0.3 0.7 -0.2
v -0.3 0.8 0.3
v -0.3 0.8 0.2
v -0.3 0.8 0.1
v -0.3 0.8 -0.2
v -0.3 0.8 -0.3
v -0.3 0.8 -0.4
v -0.3 0.9 0.3
v -0.3 0.9 0.2
v -0.3 0.9 -0.3
v -0.3 0.9 -0.4
v -0.3 1.2 0.3
v -0.3 1.2 0.2
v -0.3 1.2 -0.3
v -0.3 1.2 -0.4
v -0.3 1.3 0.3
v -0.3 1.3 0.2
v -0.3 1.3 -0.3
v -0.3 1.3 -0.4
v -0.2 0.7 0.2
v -0.2 0.7 0.1
v -0.2 0.7 -0.2
v -0.2 0.7 -0.3
v -0.2 0.8 0.2
v -0.2 0.8 0.1
v -0.2 0.8 -0.2
v -0.2 0.8 -0.3
v 0.1 0.7 0.2
v 0.1 0.7 0.1
v 0.1 0.7 -0.2
v 0.1 0.7 -0.3
v 0.1 0.8 0.2
v 0.1 0.8 0.1
v 0.1 0.8 -0.2
v 0.1 0.8 -0.3
v 0.2 0.7 0.1
v 0.2 0.7 -0.2
v 0.2 0.8 0.3
v 0.2 0.8 0.2
v 0.2 0.8 0.1
v 0.2 0.8 -0.2
v 0.2 0.8 -0.3
v 0.2 0.8 -0.4
v 0.2 0.9 0.3
v 0.2 0.9 0.2
v 0.2 0.9 -0.3
v 0.2 0.9 -0.4
v 0.2 1.2 0.3
v 0.2 1.2 0.2
v 0.2 1.2 -0.3
v 0.2 1.2 -0.4
v 0.2 1.3 0.3
v 0.2 1.3 0.2
v 0.2 1.3 -0.3
v 0.2 1.3 -0.4
v 0.3 0.8 0.2
v 0.3 0.8 -0.3
v 0.3 0.9 0.3
v 0.3 0.9 0.2
v 0.3 0.9 -0.3
v 0.3 0.9 -0.4
v 0.3 1 0.3
v 0.3 1 -0.4
v 0.3 1.1 0.3
v 0.3 1.1 0
v 0.3 1.1 -0.1
v 0.3 1.1 -0.4
v 0.3 1.2 0.3
v 0.3 1.2 0.2
v 0.3 1.2 0.1
v 0.3 1.2 -0.2
v 0.3 1.2 -0.3
v 0.3 1.2 -0.4
v 0.3 1.3 0.2
v 0.3 1.3 0.1
v 0.3 1.3 0
v 0.3 1.3 -0.1
v 0.3 1.3 -0.2
v 0.3 1.3 -0.3
v 0.4 1 0.4
v 0.4 1 -0.5
v 0.4 1.1 0.4
v 0.4 1.1 0
v 0.4 1.1 -0.1
v 0.4 1.1 -0.5
v 0.4 1.4 0
v 0.4 1.4 -0.1
v -0.4 1 0.4
v -0.4 1.1 0.4
v 0.4 1 0.4
v 0.4 1.1 0.4
v -0.5 1 0.3
v -0.5 1.1 0.3
v -0.4 0.9 0.3
v -0.4 1 0.3
v -0.4 1.1 0.3
v -0.4 1.2 0.3
v -0.3 0.8 0.3
v -0.3 0.9 0.3
v -0.3 1.2 0.3
v -0.3 1.3 0.3
v 0.2 0.8 0.3
v 0.2 0.9 0.3
v 0.2 1.2 0.3
v 0.2 1.3 0.3
v 0.3 0.9 0.3
v 0.3 1 0.3
v 0.3 1.1 0.3
v 0.3 1.2 0.3
v -0.7 1 0.2
v -0.7 1.1 0.2
v -0.5 1 0.2
v -0.5 1.1 0.2
v -0.4 0.8 0.2
v -0.4 0.9 0.2
v -0.4 1.2 0.2
v -0.4 1.3 0.2
v -0.3 0.8 0.2
v -0.3 0.9 0.2
v -0.3 1.2 0.2
v -0.3 1.3 0.2
v -0.2 0.7 0.2
v -0.2 0.8 0.2
v 0.1 0.7 0.2
v 0.1 0.8 0.2
v 0.2 0.8 0.2
v 0.2 0.9 0.2
v 0.2 1.2 0.2
v 0.2 1.3 0.2
v 0.3 0.8 0.2
v 0.3 0.9 0.2
v 0.3 1.2 0.2
v 0.3 1.3 0.2
v -0.9 1 0.1
v -0.9 1.1 0.1
v -0.8 0.9 0.1
v -0.8 1 0.1
v -0.8 1.1 0.1
v -0.8 1.2 0.1
v -0.7 1 0.1
v -0.7 1.1 0.1
v -0.4 0.9 0.1
v -0.4 1 0.1
v -0.4 1.1 0.1
v -0.4 1.2 0.1
v -0.3 0.7 0.1
v -0.3 0.8 0.1
v -0.2 0.7 0.1
v -0.2 0.8 0.1
v 0.1 0.7 0.1
v 0.1 0.8 0.1
v 0.2 0.7 0.1
v 0.2 0.8 0.1
v -1.3 1 0
v -1.3 1.1 0
v -0.9 0.9 0
v -0.9 1 0
v -0.9 1.1 0
v -0.9 1.2 0
v -0.8 0.9 0
v -0.8 1 0
v -0.8 1.1 0
v -0.8 1.2 0
v -0.7 0.8 0
v -0.7 0.9 0
v -0.7 1.2 0
v -0.7 1.3 0
v -0.4 0.8 0
v -0.4 0.9 0
v -0.4 1.2 0
v -0.4 1.3 0
v -0.4 1.4 0
v 0.3 1.1 0
v 0.3 1.3 0
v 0.4 1.1 0
v 0.4 1.4 0
v -1.3 1 -0.1
v -1.3 1.1 -0.1
v -0.9 0.9 -0.1
v -0.9 1 -0.1
v -0.9 1.1 -0.1
v -0.9 1.2 -0.1
v -0.8 0.9 -0.1
v -0.8 1 -0.1
v -0.8 1.1 -0.1
v -0.8 1.2 -0.1
v -0.7 0.8 -0.1
v -0.7 0.9 -0.1
v -0.7 1.2 -0.1
v -0.7 1.3 -0.1
v -0.4 0.8 -0.1
v -0.4 0.9 -0.1
v -0.4 1.2 -0.1
v -0.4 1.3 -0.1
v -0.4 1.4 -0.1
v 0.3 1.1 -0.1
v 0.3 1.3 -0.1
v 0.4 1.1 -0.1
v 0.4 1.4 -0.1
v -0.9 1 -0.2
v -0.9 1.1 -0.2
v -0.8 0.9 -0.2
v -0.8 1 -0.2
v -0.8 1.1 -0.2
v -0.8 1.2 -0.2
v -0.7 1 -0.2
v -0.7 1.1 -0.2
v -0.4 0.9 -0.2
v -0.4 1 -0.2
v -0.4 1.1 -0.2
v -0.4 1.2 -0.2
v -0.3 0.7 -0.2
v -0.3 0.8 -0.2
v -0.2 0.7 -0.2
v -0.2 0.8 -0.2
v 0.1 0.7 -0.2
v 0.1 0.8 -0.2
v 0.2 0.7 -0.2
v 0.2 0.8 -0.2
v -0.7 1 -0.3
v -0.7 1.1 -0.3
v -0.5 1 -0.3
v -0.5 1.1 -0.3
v -0.4 0.8 -0.3
v -0.4 0.9 -0.3
v -0.4 1.2 -0.3
v -0.4 1.3 -0.3
v -0.3 0.8 -0.3
v -0.3 0.9 -0.3
v -0.3 1.2 -0.3
v -0.3 1.3 -0.3
v -0.2 0.7 -0.3
v -0.2 0.8 -0.3
v 0.1 0.7 -0.3
v 0.1 0.8 -0.3
v 0.2 0.8 -0.3
v 0.2 0.9 -0.3
v 0.2 1.2 -0.3
v 0.2 1.3 -0.3
v 0.3 0.8 -0.3
v 0.3 0.9 -0.3
v 0.3 1.2 -0.3
v 0.3 1.3 -0.3
v -0.5 1 -0.4
v -0.5 1.1 -0.4
v -0.4 0.9 -0.4
v -0.4 1 -0.4
v -0.4 1.1 -0.4
v -0.4 1.2 -0.4
v -0.3 0.8 -0.4
v -0.3 0.9 -0.4
v -0.3 1.2 -0.4
v -0.3 1.3 -0.4
v 0.2 0.8 -0.4
v 0.2 0.9 -0.4
v 0.2 1.2 -0.4
v 0.2 1.3 -0.4
v 0.3 0.9 -0.4
v 0.3 1 -0.4
v 0.3 1.1 -0.4
v 0.3 1.2 -0.4
v -0.4 1 -0.5
v -0.4 1.1 -0.5
v 0.4 1 -0.5
v 0.4 1.1 -0.5
v -0.2 0.7 0.2
v 0.1 0.7 0.2
v -0.3 0.7 0.1
v -0.2 0.7 0.1
v 0 0.7 0.1
v 0.1 0.7 0.1
v 0.2 0.7 0.1
v -0.3 0.7 -0.2
v -0.2 0.7 -0.2
v 0 0.7 -0.2
v 0.1 0.7 -0.2
v 0.2 0.7 -0.2
v -0.2 0.7 -0.3
v 0.1 0.7 -0.3
v -0.3 0.8 0.3
v 0.2 0.8 0.3
v -0.4 0.8 0.2
v -0.3 0.8 0.2
v -0.2 0.8 0.2
v 0.1 0.8 0.2
v 0.2 0.8 0.2
v 0.3 0.8 0.2
v -0.3 0.8 0.1
v -0.2 0.8 0.1
v 0.1 0.8 0.1
v 0.2 0.8 0.1
v -0.7 0.8 0
v -0.4 0.8 0
v -0.7 0.8 -0.1
v -0.4 0.8 -0.1
v -0.3 0.8 -0.2
v -0.2 0.8 -0.2
v 0.1 0.8 -0.2
v 0.2 0.8 -0.2
v -0.4 0.8 -0.3
v -0.3 0.8 -0.3
v -0.2 0.8 -0.3
v 0.1 0.8 -0.3
v 0.2 0.8 -0.3
v 0.3 0.8 -0.3
v -0.3 0.8 -0.4
v 0.2 0.8 -0.4
v -0.4 0.9 0.3
v -0.3 0.9 0.3
v 0.2 0.9 0.3
v 0.3 0.9 0.3
v -0.4 0.9 0.2
v -0.3 0.9 0.2
v 0.2 0.9 0.2
v 0.3 0.9 0.2
v -0.8 0.9 0.1
v -0.4 0.9 0.1
v -0.9 0.9 0
v -0.8 0.9 0
v -0.7 0.9 0
v -0.4 0.9 0
v -0.9 0.9 -0.1
v -0.8 0.9 -0.1
v -0.7 0.9 -0.1
v -0.4 0.9 -0.1
v -0.8 0.9 -0.2
v -0.4 0.9 -0.2
v -0.4 0.9 -0.3
v -0.3 0.9 -0.3
v 0.2 0.9 -0.3
v 0.3 0.9 -0.3
v -0.4 0.9 -0.4
v -0.3 0.9 -0.4
v 0.2 0.9 -0.4
v 0.3 0.9 -0.4
v -0.4 1 0.4
v 0.4 1 0.4
v -0.5 1 0.3
v -0.4 1 0.3
v 0.3 1 0.3
v -0.7 1 0.2
v -0.5 1 0.2
v -0.9 1 0.1
v -0.8 1 0.1
v -0.7 1 0.1
v -0.4 1 0.1
v -1.3 1 0
v -0.9 1 0
v -0.8 1 0
v -1.3 1 -0.1
v -0.9 1 -0.1
v -0.8 1 -0.1
v -0.9 1 -0.2
v -0.8 1 -0.2
v -0.7 1 -0.2
v -0.4 1 -0.2
v -0.7 1 -0.3
v -0.5 1 -0.3
v -0.5 1 -0.4
v -0.4 1 -0.4
v 0.3 1 -0.4
v -0.4 1 -0.5
v 0.4 1 -0.5
v -0.4 1.1 0.4
v 0.4 1.1 0.4
v -0.5 1.1 0.3
v -0.4 1.1 0.3
v 0.3 1.1 0.3
v -0.7 1.1 0.2
v -0.5 1.1 0.2
v -0.9 1.1 0.1
v -0.8 1.1 0.1
v -0.7 1.1 0.1
v -0.4 1.1 0.1
v -1.3 1.1 0
v -0.9 1.1 0
v -0.8 1.1 0
v 0.3 1.1 0
v 0.4 1.1 0
v -1.3 1.1 -0.1
v -0.9 1.1 -0.1
v -0.8 1.1 -0.1
v 0.3 1.1 -0.1
v 0.4 1.1 -0.1
v -0.9 1.1 -0.2
v -0.8 1.1 -0.2
v -0.7 1.1 -0.2
v -0.4 1.1 -0.2
v -0.7 1.1 -0.3
v -0.5 1.1 -0.3
v -0.5 1.1 -0.4
v -0.4 1.1 -0.4
v 0.3 1.1 -0.4
v -0.4 1.1 -0.5
v 0.4 1.1 -0.5
v -0.4 1.2 0.3
v -0.3 1.2 0.3
v 0.2 1.2 0.3
v 0.3 1.2 0.3
v -0.4 1.2 0.2
v -0.3 1.2 0.2
v 0.2 1.2 0.2
v 0.3 1.2 0.2
v -0.8 1.2 0.1
v -0.4 1.2 0.1
v -0.9 1.2 0
v -0.8 1.2 0
v -0.7 1.2 0
v -0.4 1.2 0
v -0.9 1.2 -0.1
v -0.8 1.2 -0.1
v -0.7 1.2 -0.1
v -0.4 1.2 -0.1
v -0.8 1.2 -0.2
v -0.4 1.2 -0.2
v -0.4 1.2 -0.3
v -0.3 1.2 -0.3
v 0.2 1.2 -0.3
v 0.3 1.2 -0.3
v -0.4 1.2 -0.4
v -0.3 1.2 -0.4
v 0.2 1.2 -0.4
v 0.3 1.2 -0.4
v -0.3 1.3 0.3
v 0.2 1.3 0.3
v -0.4 1.3 0.2
v -0.3 1.3 0.2
v 0.2 1.3 0.2
v 0.3 1.3 0.2
v -0.4 1.3 0.1
v 0.3 1.3 0.1
v -0.7 1.3 0
v -0.4 1.3 0
v 0.3 1.3 0
v -0.7 1.3 -0.1
v -0.4 1.3 -0.1
v 0.3 1.3 -0.1
v -0.4 1.3 -0.2
v 0.3 1.3 -0.2
v -0.4 1.3 -0.3
v -0.3 1.3 -0.3
v 0.2 1.3 -0.3
v 0.3 1.3 -0.3
v -0.3 1.3 -0.4
v 0.2 1.3 -0.4
v -0.4 1.4 0
v 0.4 1.4 0
v -0.4 1.4 -0.1
v 0.4 1.4 -0.1

# faces
f 3/3/1 2/3/1 1/3/1
f 4/3/1 2/3/1 3/3/1
f 8/1/1 6/1/1 5/1/1
f 9/1/1 6/1/1 8/1/1
f 11/1/1 8/1/1 7/1/1
f 12/1/1 8/1/1 11/1/1
f 13/1/1 10/1/1 9/1/1
f 14/1/1 10/1/1 13/1/1
f 15/1/1 13/1/1 12/1/1
f 16/1/1 13/1/1 15/1/1
f 21/3/1 18/3/1 17/3/1
f 22/3/1 18/3/1 21/3/1
f 23/3/1 20/3/1 19/3/1
f 24/3/1 20/3/1 23/3/1
f 29/3/1 26/3/1 25/3/1
f 30/3/1 26/3/1 29/3/1
f 31/3/1 28/3/1 27/3/1
f 32/3/1 28/3/1 31/3/1
f 35/1/1 34/1/1 33/1/1
f 36/1/1 34/1/1 35/1/1
f 41/1/1 38/1/1 37/1/1
f 42/1/1 38/1/1 41/1/1
f 43/1/1 40/1/1 39/1/1
f 44/1/1 40/1/1 43/1/1
f 47/1/1 46/1/1 45/1/1
f 48/1/1 46/1/1 47/1/1
f 53/1/1 50/1/1 49/1/1
f 54/1/1 50/1/1 53/1/1
f 55/1/1 52/1/1 51/1/1
f 56/1/1 52/1/1 55/1/1
f 62/2/1 58/2/1 57/2/1
f 63/2/1 58/2/1 62/2/1
f 64/2/1 58/2/1 63/2/1
f 65/2/1 60/2/1 59/2/1
f 66/2/1 60/2/1 65/2/1
f 67/2/1 60/2/1 66/2/1
f 70/3/1 62/3/1 61/3/1
f 70/3/1 63/3/1 62/3/1
f 71/3/1 63/3/1 70/3/1
f 72/3/1 68/3/1 67/3/1
f 72/3/1 67/3/1 66/3/1
f 73/3/1 68/3/1 72/3/1
f 75/1/1 70/1/1 69/1/1
f 76/1/1 70/1/1 75/1/1
f 79/1/1 74/1/1 73/1/1
f 80/1/1 74/1/1 79/1/1
f 81/3/1 77/3/1 76/3/1
f 82/3/1 77/3/1 81/3/1
f 83/3/1 77/3/1 82/3/1
f 86/3/1 79/3/1 78/3/1
f 87/3/1 79/3/1 86/3/1
f 88/3/1 79/3/1 87/3/1
f 89/2/1 83/2/1 82/2/1
f 90/3/1 84/3/1 83/3/1
f 90/2/1 83/2/1 89/2/1
f 91/3/1 84/3/1 90/3/1
f 92/3/1 86/3/1 85/3/1
f 93/2/1 87/2/1 86/2/1
f 93/3/1 86/3/1 92/3/1
f 94/2/1 87/2/1 93/2/1
f 95/1/1 92/1/1 91/1/1
f 96/1/1 92/1/1 95/1/1
f 101/1/1 98/1/1 97/1/1
f 102/1/1 98/1/1 101/1/1
f 105/2/1 100/2/1 99/2/1
f 106/2/1 100/2/1 105/2/1
f 107/2/1 104/2/1 103/2/1
f 108/2/1 104/2/1 107/2/1
f 113/2/1 110/2/1 109/2/1
f 114/2/1 110/2/1 113/2/1
f 115/2/1 112/2/1 111/2/1
f 116/2/1 112/2/1 115/2/1
f 121/1/1 118/1/1 117/1/1
f 122/1/1 118/1/1 121/1/1
f 123/1/1 120/1/1 119/1/1
f 124/1/1 120/1/1 123/1/1
f 125/1/2 126/1/2 129/1/2
f 129/1/2 126/1/2 130/1/2
f 127/1/2 128/1/2 131/1/2
f 131/1/2 128/1/2 132/1/2
f 133/1/2 134/1/2 137/1/2
f 137/1/2 134/1/2 138/1/2
f 135/2/2 136/2/2 141/2/2
f 141/2/2 136/2/2 142/2/2
f 139/2/2 140/2/2 143/2/2
f 143/2/2 140/2/2 144/2/2
f 145/2/2 146/2/2 149/2/2
f 149/2/2 146/2/2 150/2/2
f 147/2/2 148/2/2 151/2/2
f 151/2/2 148/2/2 152/2/2
f 153/2/2 154/2/2 156/2/2
f 156/2/2 154/2/2 157/2/2
f 155/3/2 156/3/2 159/3/2
f 157/3/2 158/3/2 159/3/2
f 156/3/2 157/3/2 159/3/2
f 159/3/2 158/3/2 160/3/2
f 161/3/2 162/3/2 165/3/2
f 165/3/2 162/3/2 166/3/2
f 166/3/2 162/3/2 167/3/2
f 163/3/2 164/3/2 168/3/2
f 168/3/2 164/3/2 169/3/2
f 169/3/2 164/3/2 170/3/2
f 166/2/2 167/2/2 171/2/2
f 167/3/2 162/3/2 172/3/2
f 171/2/2 167/2/2 172/2/2
f 172/3/2 162/3/2 173/3/2
f 163/3/2 168/3/2 174/3/2
f 168/2/2 169/2/2 175/2/2
f 174/3/2 168/3/2 175/3/2
f 175/2/2 169/2/2 176/2/2
f 177/1/2 178/1/2 179/1/2
f 179/1/2 178/1/2 180/1/2
f 180/1/2 178/1/2 181/1/2
f 181/1/2 178/1/2 182/1/2
f 180/1/2 181/1/2 183/1/2
f 183/1/2 181/1/2 184/1/2
f 187/1/3 186/1/3 185/1/3
f 188/1/3 186/1/3 187/1/3
f 192/1/3 190/1/3 189/1/3
f 193/1/3 190/1/3 192/1/3
f 196/3/3 192/3/3 191/3/3
f 197/3/3 194/3/3 193/3/3
f 199/2/3 196/2/3 195/2/3
f 200/3/3 192/3/3 196/3/3
f 200/2/3 196/2/3 199/2/3
f 201/2/3 198/2/3 197/2/3
f 201/3/3 197/3/3 193/3/3
f 202/2/3 198/2/3 201/2/3
f 203/3/3 192/3/3 200/3/3
f 204/3/3 192/3/3 203/3/3
f 205/3/3 201/3/3 193/3/3
f 206/3/3 201/3/3 205/3/3
f 209/1/3 208/1/3 207/1/3
f 210/1/3 208/1/3 209/1/3
f 215/2/3 212/2/3 211/2/3
f 216/2/3 212/2/3 215/2/3
f 217/2/3 214/2/3 213/2/3
f 218/2/3 214/2/3 217/2/3
f 221/1/3 220/1/3 219/1/3
f 222/1/3 220/1/3 221/1/3
f 227/2/3 224/2/3 223/2/3
f 228/2/3 224/2/3 227/2/3
f 229/2/3 226/2/3 225/2/3
f 230/2/3 226/2/3 229/2/3
f 234/1/3 232/1/3 231/1/3
f 235/1/3 232/1/3 234/1/3
f 237/3/3 234/3/3 233/3/3
f 237/1/3 235/1/3 234/1/3
f 238/3/3 236/3/3 235/3/3
f 238/1/3 235/1/3 237/1/3
f 239/3/3 237/3/3 233/3/3
f 240/3/3 237/3/3 239/3/3
f 241/3/3 236/3/3 238/3/3
f 242/3/3 236/3/3 241/3/3
f 245/1/3 244/1/3 243/1/3
f 246/1/3 244/1/3 245/1/3
f 249/1/3 248/1/3 247/1/3
f 250/1/3 248/1/3 249/1/3
f 254/3/3 252/3/3 251/3/3
f 255/3/3 252/3/3 254/3/3
f 257/1/3 254/1/3 253/1/3
f 258/1/3 254/1/3 257/1/3
f 259/1/3 256/1/3 255/1/3
f 260/1/3 256/1/3 259/1/3
f 265/1/3 262/1/3 261/1/3
f 266/1/3 262/1/3 265/1/3
f 267/1/3 264/1/3 263/1/3
f 268/1/3 264/1/3 267/1/3
f 271/1/3 269/1/3 268/1/3
f 272/1/3 271/1/3 270/1/3
f 273/1/3 269/1/3 271/1/3
f 273/1/3 271/1/3 272/1/3
f 274/3/4 275/3/4 277/3/4
f 277/3/4 275/3/4 278/3/4
f 276/1/4 277/1/4 280/1/4
f 280/1/4 277/1/4 281/1/4
f 278/1/4 279/1/4 282/1/4
f 282/1/4 279/1/4 283/1/4
f 284/1/4 285/1/4 288/1/4
f 288/1/4 285/1/4 289/1/4
f 286/1/4 287/1/4 290/1/4
f 290/1/4 287/1/4 291/1/4
f 291/1/4 292/1/4 294/1/4
f 293/1/4 294/1/4 295/1/4
f 294/1/4 292/1/4 296/1/4
f 295/1/4 294/1/4 296/1/4
f 297/1/4 298/1/4 300/1/4
f 300/1/4 298/1/4 301/1/4
f 299/3/4 300/3/4 303/3/4
f 300/1/4 301/1/4 303/1/4
f 301/3/4 302/3/4 304/3/4
f 303/1/4 301/1/4 304/1/4
f 299/3/4 303/3/4 305/3/4
f 305/3/4 303/3/4 306/3/4
f 304/3/4 302/3/4 307/3/4
f 307/3/4 302/3/4 308/3/4
f 309/1/4 310/1/4 311/1/4
f 311/1/4 310/1/4 312/1/4
f 313/1/4 314/1/4 315/1/4
f 315/1/4 314/1/4 316/1/4
f 317/1/4 318/1/4 319/1/4
f 319/1/4 318/1/4 320/1/4
f 321/2/4 322/2/4 325/2/4
f 325/2/4 322/2/4 326/2/4
f 323/2/4 324/2/4 327/2/4
f 327/2/4 324/2/4 328/2/4
f 329/1/4 330/1/4 331/1/4
f 331/1/4 330/1/4 332/1/4
f 333/2/4 334/2/4 337/2/4
f 337/2/4 334/2/4 338/2/4
f 335/2/4 336/2/4 339/2/4
f 339/2/4 336/2/4 340/2/4
f 341/1/4 342/1/4 344/1/4
f 344/1/4 342/1/4 345/1/4
f 343/3/4 344/3/4 348/3/4
f 345/3/4 346/3/4 349/3/4
f 347/2/4 348/2/4 351/2/4
f 348/3/4 344/3/4 352/3/4
f 351/2/4 348/2/4 352/2/4
f 349/2/4 350/2/4 353/2/4
f 345/3/4 349/3/4 353/3/4
f 353/2/4 350/2/4 354/2/4
f 352/3/4 344/3/4 355/3/4
f 355/3/4 344/3/4 356/3/4
f 345/3/4 353/3/4 357/3/4
f 357/3/4 353/3/4 358/3/4
f 359/1/4 360/1/4 361/1/4
f 361/1/4 360/1/4 362/1/4
f 366/1/5 364/1/5 363/1/5
f 367/1/5 364/1/5 366/1/5
f 368/1/5 364/1/5 367/1/5
f 370/1/5 366/1/5 365/1/5
f 371/2/5 367/2/5 366/2/5
f 371/1/5 366/1/5 370/1/5
f 372/1/5 369/1/5 368/1/5
f 372/2/5 367/2/5 371/2/5
f 372/1/5 368/1/5 367/1/5
f 373/1/5 369/1/5 372/1/5
f 374/1/5 369/1/5 373/1/5
f 375/1/5 372/1/5 371/1/5
f 375/1/5 373/1/5 372/1/5
f 376/1/5 373/1/5 375/1/5
f 380/2/5 378/2/5 377/2/5
f 381/2/5 378/2/5 380/2/5
f 382/2/5 378/2/5 381/2/5
f 383/2/5 378/2/5 382/2/5
f 385/2/5 380/2/5 379/2/5
f 385/2/5 381/2/5 380/2/5
f 386/2/5 381/2/5 385/2/5
f 387/2/5 384/2/5 383/2/5
f 387/2/5 383/2/5 382/2/5
f 388/2/5 384/2/5 387/2/5
f 390/2/5 385/2/5 379/2/5
f 391/1/5 390/1/5 389/1/5
f 392/2/5 385/2/5 390/2/5
f 392/1/5 390/1/5 391/1/5
f 393/2/5 385/2/5 392/2/5
f 396/2/5 384/2/5 388/2/5
f 397/2/5 394/2/5 393/2/5
f 397/2/5 393/2/5 392/2/5
f 398/2/5 394/2/5 397/2/5
f 399/2/5 394/2/5 398/2/5
f 400/2/5 396/2/5 395/2/5
f 401/2/5 384/2/5 396/2/5
f 401/2/5 396/2/5 400/2/5
f 402/2/5 384/2/5 401/2/5
f 403/2/5 399/2/5 398/2/5
f 403/2/5 400/2/5 399/2/5
f 403/2/5 401/2/5 400/2/5
f 404/2/5 401/2/5 403/2/5
f 409/3/5 406/3/5 405/3/5
f 410/3/5 406/3/5 409/3/5
f 411/3/5 408/3/5 407/3/5
f 412/3/5 408/3/5 411/3/5
f 416/3/5 414/3/5 413/3/5
f 417/3/5 414/3/5 416/3/5
f 418/3/5 414/3/5 417/3/5
f 419/1/5 416/1/5 415/1/5
f 419/1/5 417/1/5 416/1/5
f 420/1/5 417/1/5 419/1/5
f 421/1/5 417/1/5 420/1/5
f 423/3/5 422/3/5 421/3/5
f 423/3/5 421/3/5 420/3/5
f 424/3/5 422/3/5 423/3/5
f 429/3/5 426/3/5 425/3/5
f 430/3/5 426/3/5 429/3/5
f 431/3/5 428/3/5 427/3/5
f 432/3/5 428/3/5 431/3/5
f 436/1/5 434/1/5 433/1/5
f 437/1/5 434/1/5 436/1/5
f 439/1/5 436/1/5 435/1/5
f 442/1/5 439/1/5 438/1/5
f 443/1/5 436/1/5 439/1/5
f 443/1/5 439/1/5 442/1/5
f 445/1/5 441/1/5 440/1/5
f 446/1/5 441/1/5 445/1/5
f 447/3/5 445/3/5 444/3/5
f 448/3/5 445/3/5 447/3/5
f 450/1/5 449/1/5 448/1/5
f 451/1/5 449/1/5 450/1/5
f 454/1/5 453/1/5 452/1/5
f 455/1/5 453/1/5 454/1/5
f 456/1/5 453/1/5 455/1/5
f 457/1/5 453/1/5 456/1/5
f 458/1/5 434/1/5 437/1/5
f 459/1/5 458/1/5 457/1/5
f 460/1/5 434/1/5 458/1/5
f 460/1/5 458/1/5 459/1/5
f 461/1/6 462/1/6 464/1/6
f 464/1/6 462/1/6 465/1/6
f 463/1/6 464/1/6 467/1/6
f 466/1/6 467/1/6 470/1/6
f 467/1/6 464/1/6 471/1/6
f 470/1/6 467/1/6 471/1/6
f 468/1/6 469/1/6 473/1/6
f 473/1/6 469/1/6 474/1/6
f 465/1/6 462/1/6 475/1/6
f 475/1/6 462/1/6 476/1/6
f 472/3/6 473/3/6 477/3/6
f 477/3/6 473/3/6 478/3/6
f 478/1/6 479/1/6 482/1/6
f 482/1/6 479/1/6 483/1/6
f 484/1/6 485/1/6 486/1/6
f 486/1/6 485/1/6 487/1/6
f 487/1/6 485/1/6 488/1/6
f 488/1/6 485/1/6 489/1/6
f 480/1/6 481/1/6 490/1/6
f 489/1/6 490/1/6 491/1/6
f 490/1/6 481/1/6 492/1/6
f 491/1/6 490/1/6 492/1/6
f 493/3/6 494/3/6 497/3/6
f 497/3/6 494/3/6 498/3/6
f 495/3/6 496/3/6 499/3/6
f 499/3/6 496/3/6 500/3/6
f 501/3/6 502/3/6 504/3/6
f 504/3/6 502/3/6 505/3/6
f 505/3/6 502/3/6 506/3/6
f 503/1/6 504/1/6 507/1/6
f 504/1/6 505/1/6 507/1/6
f 507/1/6 505/1/6 508/1/6
f 508/1/6 505/1/6 509/1/6
f 509/3/6 510/3/6 511/3/6
f 508/3/6 509/3/6 511/3/6
f 511/3/6 510/3/6 512/3/6
f 513/3/6 514/3/6 517/3/6
f 517/3/6 514/3/6 518/3/6
f 515/3/6 516/3/6 519/3/6
f 519/3/6 516/3/6 520/3/6
f 521/2/6 522/2/6 524/2/6
f 524/2/6 522/2/6 525/2/6
f 523/2/6 524/2/6 527/2/6
f 525/2/6 526/2/6 527/2/6
f 524/2/6 525/2/6 527/2/6
f 527/2/6 526/2/6 528/2/6
f 527/3/6 528/3/6 530/3/6
f 530/3/6 528/3/6 531/3/6
f 529/1/6 530/1/6 532/1/6
f 532/1/6 530/1/6 533/1/6
f 533/3/6 534/3/6 535/3/6
f 535/3/6 534/3/6 536/3/6
f 535/2/6 536/2/6 537/2/6
f 537/2/6 536/2/6 538/2/6
f 538/2/6 536/2/6 539/2/6
f 539/2/6 536/2/6 540/2/6
f 538/2/6 539/2/6 541/2/6
f 541/2/6 539/2/6 542/2/6
f 543/1/6 544/1/6 545/1/6
f 545/1/6 544/1/6 546/1/6
